<svg width="2152" height="313" viewBox="0 0 2152 313" fill="none" xmlns="http://www.w3.org/2000/svg">
<g clip-path="url(#clip0_97_43)">
<path d="M470.612 107.187C479.309 91.1833 491.434 78.6662 506.984 69.7257C522.537 60.7852 540.195 56.3149 559.876 56.3149C584.032 56.3149 604.676 62.8414 621.898 75.8053C639.121 88.7692 650.537 106.472 656.337 128.913H601.868C597.827 120.24 592.027 113.714 584.645 109.154C577.178 104.594 568.747 102.359 559.256 102.359C543.971 102.359 531.672 107.723 522.181 118.541C512.695 129.359 507.95 143.844 507.95 161.903C507.95 179.964 512.695 194.447 522.181 205.265C531.672 216.083 543.971 221.448 559.256 221.448C568.747 221.448 577.178 219.213 584.645 214.653C592.113 210.093 597.827 203.566 601.868 194.894H656.337C650.537 217.335 639.029 234.948 621.898 247.823C604.676 260.697 584.032 267.134 559.876 267.134C540.195 267.134 522.537 262.664 506.984 253.724C491.434 244.783 479.309 232.356 470.612 216.441C461.914 200.527 457.609 182.378 457.609 161.903C457.609 141.43 461.914 123.191 470.612 107.187Z" fill="#171717"/>
<path d="M711.862 257.747C699.213 250.863 689.287 241.028 681.991 228.243C674.787 215.458 671.096 200.527 671.096 183.451C671.096 166.374 674.787 151.622 682.083 138.748C689.458 125.873 699.477 116.039 712.217 109.154C724.952 102.27 739.274 98.8726 755.086 98.8726C770.905 98.8726 785.221 102.27 797.961 109.154C810.702 116.039 820.714 125.873 828.096 138.748C835.478 151.622 839.077 166.553 839.077 183.451C839.077 200.349 835.386 215.279 827.918 228.153C820.45 241.028 810.346 250.863 797.52 257.747C784.694 264.631 770.377 268.029 754.473 268.029C738.569 268.029 724.424 264.631 711.776 257.747H711.862ZM778.808 213.849C785.484 206.785 788.826 196.683 788.826 183.451C788.826 170.219 785.576 160.205 779.163 153.053C772.658 145.989 764.755 142.413 755.264 142.413C745.773 142.413 737.606 145.9 731.193 152.873C724.78 159.847 721.616 170.039 721.616 183.361C721.616 196.683 724.78 206.696 731.015 213.759C737.251 220.822 745.16 224.399 754.651 224.399C764.136 224.399 772.223 220.822 778.808 213.759V213.849Z" fill="#171717"/>
<path d="M859.284 138.572C865.519 125.787 874.134 115.953 884.937 109.069C895.746 102.184 907.781 98.787 921.135 98.787C931.767 98.787 941.429 101.022 950.215 105.582C959.001 110.142 965.941 116.221 970.944 123.821V47.4678H1020.5V265.618H970.944V242.015C966.291 249.883 959.7 256.141 951.092 260.88C942.484 265.618 932.465 267.943 921.135 267.943C907.781 267.943 895.746 264.456 884.937 257.483C874.134 250.509 865.611 240.585 859.284 227.711C853.049 214.836 849.885 199.994 849.885 183.007C849.885 166.02 853.049 151.268 859.284 138.483V138.572ZM960.669 153.593C953.814 146.351 945.47 142.685 935.629 142.685C925.789 142.685 917.444 146.261 910.59 153.414C903.741 160.567 900.314 170.49 900.314 183.007C900.314 195.524 903.741 205.538 910.59 212.958C917.444 220.29 925.789 224.044 935.629 224.044C945.47 224.044 953.814 220.379 960.669 213.137C967.523 205.895 970.944 195.971 970.944 183.365C970.944 170.759 967.523 160.835 960.669 153.593Z" fill="#171717"/>
<path d="M1202.18 195.52H1090.08C1090.87 205.712 1094.12 213.581 1099.74 218.945C1105.45 224.309 1112.48 227.081 1120.74 227.081C1133.13 227.081 1141.73 221.806 1146.57 211.167H1199.28C1196.56 221.985 1191.73 231.73 1184.61 240.313C1177.58 248.985 1168.71 255.78 1158.08 260.697C1147.45 265.615 1135.58 268.029 1122.41 268.029C1106.6 268.029 1092.45 264.631 1080.15 257.747C1067.76 250.863 1058.1 241.028 1051.16 228.243C1044.22 215.458 1040.7 200.527 1040.7 183.451C1040.7 166.374 1044.13 151.443 1050.98 138.658C1057.84 125.873 1067.41 116.039 1079.8 109.154C1092.19 102.27 1106.33 98.8726 1122.41 98.8726C1138.48 98.8726 1151.93 102.18 1164.14 108.886C1176.26 115.592 1185.84 125.069 1192.69 137.496C1199.54 149.834 1202.97 164.318 1202.97 180.858C1202.97 185.597 1202.71 190.514 1202.09 195.61L1202.18 195.52ZM1152.37 167.536C1152.37 158.864 1149.47 151.98 1143.67 146.883C1137.87 141.787 1130.67 139.194 1121.97 139.194C1113.27 139.194 1106.68 141.609 1100.97 146.526C1095.26 151.443 1091.75 158.417 1090.43 167.447H1152.46L1152.37 167.536Z" fill="#171717"/>
<path d="M1329.92 265.699L1287.67 187.559H1275.8V265.699H1226.25V58.7246H1309.37C1325.44 58.7246 1339.06 61.5855 1350.4 67.3073C1361.73 73.0297 1370.16 80.8077 1375.78 90.7321C1381.41 100.656 1384.22 111.742 1384.22 123.901C1384.22 137.67 1380.44 149.919 1372.8 160.737C1365.15 171.555 1353.91 179.244 1339.06 183.714L1385.97 265.699H1330.01H1329.92ZM1275.72 151.886H1306.47C1315.51 151.886 1322.37 149.651 1326.85 145.091C1331.42 140.531 1333.7 134.183 1333.7 125.958C1333.7 117.732 1331.42 111.921 1326.85 107.362C1322.28 102.802 1315.51 100.566 1306.47 100.566H1275.72V151.886Z" fill="#171717"/>
<path d="M1408.9 138.562C1415.15 125.777 1423.75 115.942 1434.56 109.058C1445.37 102.174 1457.49 99.7598 1470.76 99.7598H1570.12V265.608H1520.57V242.362C1515.74 250.051 1509.06 256.221 1500.45 260.959C1491.84 265.697 1481.83 268.022 1470.49 268.022C1457.32 268.022 1445.37 264.535 1434.56 257.562C1423.75 250.588 1415.23 240.664 1408.9 227.79C1402.67 214.915 1399.51 200.073 1399.51 183.086C1399.51 166.099 1402.67 151.347 1408.9 138.562ZM1510.29 153.582C1503.44 146.341 1495.09 142.675 1485.26 142.675C1475.42 142.675 1467.06 146.251 1460.22 153.403C1453.36 160.556 1449.93 170.48 1449.93 182.997C1449.93 195.514 1453.36 205.527 1460.22 212.948C1467.06 220.279 1475.42 224.034 1485.26 224.034C1495.09 224.034 1503.44 220.369 1510.29 213.127C1517.14 205.885 1520.57 195.961 1520.57 183.355C1520.57 170.748 1517.14 160.824 1510.29 153.582Z" fill="#171717"/>
<path d="M1669.83 105.85C1678.53 101.111 1688.46 98.787 1699.7 98.787C1713.06 98.787 1725.09 102.184 1735.9 109.069C1746.71 115.953 1755.23 125.787 1761.56 138.572C1767.79 151.358 1770.96 166.199 1770.96 183.096C1770.96 199.994 1767.79 214.925 1761.56 227.8C1755.32 240.674 1746.71 250.598 1735.9 257.572C1725.09 264.546 1713.06 268.032 1699.7 268.032C1688.28 268.032 1678.36 265.708 1669.83 261.148C1661.31 256.499 1654.63 250.42 1649.8 242.731V265.708H1600.25V47.4678H1649.8V124.446C1654.46 116.758 1661.14 110.588 1669.83 105.85ZM1710.25 153.503C1703.4 146.351 1694.96 142.774 1684.86 142.774C1674.76 142.774 1666.67 146.44 1659.82 153.682C1652.97 160.924 1649.54 170.848 1649.54 183.454C1649.54 196.06 1652.97 205.985 1659.82 213.226C1666.67 220.468 1675.02 224.134 1684.86 224.134C1694.7 224.134 1703.13 220.468 1710.07 213.048C1717.01 205.717 1720.53 195.703 1720.53 183.096C1720.53 170.49 1717.1 160.656 1710.25 153.503Z" fill="#171717"/>
<path d="M1860.75 105.85C1869.45 101.111 1879.38 98.787 1890.62 98.787C1903.98 98.787 1916.01 102.184 1926.82 109.069C1937.62 115.953 1946.15 125.787 1952.47 138.572C1958.71 151.358 1961.87 166.199 1961.87 183.096C1961.87 199.994 1958.71 214.925 1952.47 227.8C1946.23 240.674 1937.62 250.598 1926.82 257.572C1916.01 264.546 1903.98 268.032 1890.62 268.032C1879.2 268.032 1869.27 265.708 1860.75 261.148C1852.23 256.499 1845.55 250.42 1840.72 242.731V265.708H1791.17V47.4678H1840.72V124.446C1845.37 116.758 1852.05 110.588 1860.75 105.85ZM1901.16 153.503C1894.31 146.351 1885.88 142.774 1875.77 142.774C1865.67 142.774 1857.59 146.44 1850.73 153.682C1843.89 160.924 1840.46 170.848 1840.46 183.454C1840.46 196.06 1843.89 205.985 1850.73 213.226C1857.59 220.468 1865.93 224.134 1875.77 224.134C1885.61 224.134 1894.05 220.468 1900.99 213.048C1907.93 205.717 1911.44 195.703 1911.44 183.096C1911.44 170.49 1908.02 160.656 1901.16 153.503Z" fill="#171717"/>
<path d="M1985.77 76.2514C1980.23 71.0655 1977.51 64.6286 1977.51 56.9396C1977.51 49.2507 1980.23 42.545 1985.77 37.3597C1991.3 32.1737 1998.33 29.5811 2007.02 29.5811C2015.72 29.5811 2022.49 32.1737 2028.02 37.3597C2033.56 42.545 2036.28 49.0714 2036.28 56.9396C2036.28 64.8073 2033.56 71.0655 2028.02 76.2514C2022.49 81.4368 2015.54 84.0294 2007.02 84.0294C1998.5 84.0294 1991.21 81.4368 1985.77 76.2514ZM2031.71 101.195V265.702H1982.16V101.106H2031.71V101.195Z" fill="#171717"/>
<path d="M2151.9 222.875V265.611H2126.68C2108.76 265.611 2094.71 261.141 2084.69 252.2C2074.67 243.26 2069.67 228.686 2069.67 208.391V142.946H2049.99V101.104H2069.67V61.0503H2119.22V101.104H2151.64V142.946H2119.22V209.017C2119.22 213.934 2120.36 217.511 2122.74 219.656C2125.02 221.802 2128.89 222.875 2134.33 222.875H2151.99H2151.9Z" fill="#171717"/>
<path d="M156.512 313C242.944 313 313.012 242.933 313.012 156.5C313.012 70.0674 242.944 0 156.512 0C70.0791 0 0.0117188 70.0674 0.0117188 156.5C0.0117188 242.933 70.0791 313 156.512 313Z" fill="#171717"/>
<path d="M262.787 130.577C262.787 130.577 240.982 102.703 213.572 101.109C195.884 100.065 191.599 102.428 190.831 104.188C189.733 95.0622 181.933 52.7825 128.047 43.8223C134.926 93.2713 163.335 80.3866 180.066 114.469C180.066 114.469 151.833 76.0941 105.417 90.2232C105.417 90.2232 122.335 125.74 172.375 132.997C172.375 132.997 176.385 146.741 177.594 149.161C177.594 149.161 100.528 108.971 77.1277 186.106C59.7129 182.161 53.8716 201.066 73.8876 213.98C73.8876 213.98 77.2934 200.455 85.5866 196.442C85.5866 196.442 67.7896 216.29 88.7175 240.061H163.832C165.647 237.054 173.68 221.236 153.813 209.263C167.837 209.062 179.252 235.515 191.533 240.243H209.396C210 238.774 211.264 234.376 208.296 230.419C203.722 225.172 193.707 225.882 193.796 216.179C197.255 171.04 264.939 184.902 262.787 130.577Z" fill="#FEFEFE"/>
</g>
<defs>
<clipPath id="clip0_97_43">
<rect width="2152" height="313" fill="white"/>
</clipPath>
</defs>
</svg>
